<svg width="60" height="60" viewBox="0 0 60 60" fill="none" xmlns="http://www.w3.org/2000/svg">
<g opacity="0.2" filter="url(#filter0_d_7_3)">
<path fill-rule="evenodd" clip-rule="evenodd" d="M10 30C10 18.9543 18.9543 10 30 10C41.0457 10 50 18.9543 50 30C50 41.0457 41.0457 50 30 50C18.9543 50 10 41.0457 10 30Z" fill="white"/>
</g>
<path fill-rule="evenodd" clip-rule="evenodd" d="M29.999 29.9552C28.2413 29.9552 26.8031 28.517 26.8031 26.7593C26.8031 25.0015 28.2413 23.5634 29.999 23.5634C31.7568 23.5634 33.1949 25.0015 33.1949 26.7593C33.1949 28.517 31.7568 29.9552 29.999 29.9552ZM32.9552 30.5145C34.2336 29.4758 34.9527 27.8779 34.713 26.0402C34.3934 23.9629 32.6357 22.285 30.5583 22.0453C27.6021 21.6458 25.2052 23.883 25.2052 26.7593C25.2052 28.2773 25.9242 29.6356 26.9629 30.5145C24.2464 31.5531 22.3288 33.8702 22.0093 37.0661C21.9294 37.5455 22.3288 37.945 22.8082 37.945C23.2077 37.945 23.5273 37.6254 23.6072 37.2259C23.9268 33.6305 26.6433 31.5531 29.999 31.5531C33.2748 31.5531 36.0712 33.6305 36.3908 37.2259C36.3908 37.6254 36.7903 37.945 37.1898 37.945C37.6692 37.945 38.0687 37.5455 37.9888 37.0661C37.5893 33.8702 35.6718 31.4732 32.9553 30.5145H32.9552Z" fill="white"/>
<defs>
<filter id="filter0_d_7_3" x="0" y="0" width="60" height="60" filterUnits="userSpaceOnUse" color-interpolation-filters="sRGB">
<feFlood flood-opacity="0" result="BackgroundImageFix"/>
<feColorMatrix in="SourceAlpha" type="matrix" values="0 0 0 0 0 0 0 0 0 0 0 0 0 0 0 0 0 0 127 0" result="hardAlpha"/>
<feOffset/>
<feGaussianBlur stdDeviation="5"/>
<feColorMatrix type="matrix" values="0 0 0 0 0 0 0 0 0 0 0 0 0 0 0 0 0 0 0.25098 0"/>
<feBlend mode="normal" in2="BackgroundImageFix" result="effect1_dropShadow_7_3"/>
<feBlend mode="normal" in="SourceGraphic" in2="effect1_dropShadow_7_3" result="shape"/>
</filter>
</defs>
</svg>
