<svg width="17" height="16" viewBox="0 0 17 16" fill="none" xmlns="http://www.w3.org/2000/svg">
<path fill-rule="evenodd" clip-rule="evenodd" d="M14.4192 14.4H3.53923C3.05923 14.4 2.65923 14 2.73923 13.52L3.61923 7.12C3.69923 6.72 4.01923 6.4 4.41923 6.4H4.97923V8C4.97923 8.48 5.29923 8.8 5.77923 8.8C6.25923 8.8 6.57923 8.48 6.57923 8V6.4H11.3792V8C11.3792 8.48 11.6992 8.8 12.1792 8.8C12.6592 8.8 12.9792 8.48 12.9792 8V6.4H13.5392C13.9392 6.4 14.2592 6.72 14.3392 7.12L15.2192 13.52C15.2992 14 14.9792 14.4 14.4192 14.4ZM6.57923 4C6.57923 2.64 7.61923 1.6 8.97923 1.6C10.3392 1.6 11.3792 2.4 11.3792 4V4.8H6.57923V4ZM16.9792 14.16L15.8592 6.16C15.7792 5.36 15.0592 4.8 14.2592 4.8H12.9792V4C12.9792 1.6 11.2192 0 8.97923 0C6.73923 0 4.97923 1.76 4.97923 4V4.8H3.93923C3.13923 4.8 2.25923 5.36 2.09923 6.16L0.97923 14.16C0.81923 15.12 1.61923 16 2.57923 16H15.3792C16.3392 16 17.1392 15.12 16.9792 14.16Z" fill="#DB9351"/>
</svg>
